<svg xmlns="http://www.w3.org/2000/svg" version="1.1" xmlns:xlink="http://www.w3.org/1999/xlink" xmlns:svgjs="http://svgjs.dev/svgjs" width="1000" height="1440" preserveAspectRatio="none" viewBox="0 0 1000 1440"><g mask="url(&quot;#SvgjsMask1641&quot;)" fill="none"><rect width="1000" height="1440" x="0" y="0" fill="url(&quot;#SvgjsLinearGradient1642&quot;)"></rect><path d="M174.736,633.691C242.991,635.416,309.847,604.261,344.135,545.218C378.56,485.939,371.587,412.918,337.471,353.461C303.183,293.703,243.575,247.179,174.736,249.991C109.521,252.655,64.549,308.463,33.506,365.877C4.328,419.84,-9.073,482.754,19.542,537.017C50.012,594.798,109.434,632.041,174.736,633.691" fill="rgba(69, 76, 76, 0.47)" class="triangle-float1"></path><path d="M535.071,1361.575C624.236,1365.985,719.96,1344.283,766.912,1268.353C815.818,1189.262,798.287,1089.885,753.448,1008.419C706.68,923.447,632.044,845.232,535.071,847.128C440.3,848.981,372.569,931.49,330.997,1016.677C294.847,1090.755,297.845,1176.287,339.82,1247.227C380.986,1316.8,454.331,1357.581,535.071,1361.575" fill="rgba(69, 76, 76, 0.47)" class="triangle-float3"></path><path d="M317.789,1055.838C410.235,1056.806,498.777,1005.827,539.875,923.013C577.443,847.312,539.93,764.098,499.361,689.962C456.374,611.408,407.336,517.057,317.789,517.175C228.338,517.293,179.165,611.526,137.046,690.44C98.28,763.071,67.116,844.649,103.618,918.444C143.924,999.927,226.887,1054.886,317.789,1055.838" fill="rgba(69, 76, 76, 0.47)" class="triangle-float2"></path><path d="M706.0721055376437 856.7363724759487L573.0397158267606 939.8642356175372 764.247705394585 1097.8488886130674z" fill="rgba(69, 76, 76, 0.47)" class="triangle-float2"></path><path d="M275.413,1853.575C370.21,1851.471,448.666,1784.703,492.205,1700.47C532.201,1623.09,525.095,1531.721,480.425,1456.941C436.959,1384.177,360.08,1341.472,275.413,1337.554C182.548,1333.257,84.103,1357.58,34.673,1436.314C-17.423,1519.294,-7.677,1625.612,41.287,1710.478C90.277,1795.39,177.406,1855.75,275.413,1853.575" fill="rgba(69, 76, 76, 0.47)" class="triangle-float3"></path><path d="M526.754729450668 635.5326469293419L472.6390828462691 478.36939740838625 263.95203186703503 638.1244920754624z" fill="rgba(69, 76, 76, 0.47)" class="triangle-float3"></path><path d="M704.7476907336677 240.2594939435292L590.9345782132247 141.32326463992206 491.9983489096175 255.1363771603651 605.8114614300605 354.07260646397225z" fill="rgba(69, 76, 76, 0.47)" class="triangle-float2"></path><path d="M421.0746095006789 409.885879494717L208.87280395779942 387.5825710011369 186.56949546421933 599.7843765440164 398.77130100709877 622.0876850375964z" fill="rgba(69, 76, 76, 0.47)" class="triangle-float3"></path><path d="M12.053,1314.955C63.66,1313.151,96.299,1265.992,122.124,1221.275C147.957,1176.544,170.335,1125.785,148.278,1079.076C123.295,1026.172,70.551,989.181,12.053,988.189C-48.028,987.17,-104.902,1020.895,-132.415,1074.317C-158.008,1124.012,-140.98,1181.543,-112.208,1229.468C-84.472,1275.667,-41.799,1316.838,12.053,1314.955" fill="rgba(69, 76, 76, 0.47)" class="triangle-float2"></path><path d="M660.41,690.581C755.161,687.813,842.35,643.159,893.099,563.097C947.985,476.51,973.935,366.114,922.174,277.624C870.792,189.781,762.158,167.253,660.41,165.293C554.033,163.244,436.954,176.959,380.577,267.192C321.698,361.43,341.649,484.714,402.919,577.416C458.325,661.246,559.968,693.515,660.41,690.581" fill="rgba(69, 76, 76, 0.47)" class="triangle-float2"></path><path d="M470.582,1784.361C586.622,1785.493,690.629,1716.262,747.982,1615.379C804.657,1515.689,812.054,1390.271,749.126,1294.405C690.997,1205.849,576.144,1183.959,470.582,1192.781C380.829,1200.282,311.174,1259.306,262.479,1335.073C208.11,1419.668,160.135,1518.811,202.399,1610.058C250.426,1713.746,356.316,1783.247,470.582,1784.361" fill="rgba(69, 76, 76, 0.47)" class="triangle-float1"></path><path d="M391.3945537849355 399.13539341387906L335.6879083126442 544.2561663645197 480.8086812632848 599.962811836811 536.5153267355761 454.84203888617037z" fill="rgba(69, 76, 76, 0.47)" class="triangle-float1"></path><path d="M423.80019330519906 115.25284581432554L208.07821020484045 5.3370054092857515 98.16236979980067 221.05898850964437 313.8843529001593 330.97482891468417z" fill="rgba(69, 76, 76, 0.47)" class="triangle-float2"></path></g><defs><mask id="SvgjsMask1641"><rect width="1000" height="1440" fill="#ffffff"></rect></mask><linearGradient x1="50%" y1="100%" x2="50%" y2="0%" gradientUnits="userSpaceOnUse" id="SvgjsLinearGradient1642"><stop stop-color="rgba(121, 121, 121, 1)" offset="0"></stop><stop stop-color="rgba(211, 211, 211, 1)" offset="1"></stop></linearGradient><style>
                @keyframes float1 {
                    0%{transform: translate(0, 0)}
                    50%{transform: translate(-10px, 0)}
                    100%{transform: translate(0, 0)}
                }

                .triangle-float1 {
                    animation: float1 5s infinite;
                }

                @keyframes float2 {
                    0%{transform: translate(0, 0)}
                    50%{transform: translate(-5px, -5px)}
                    100%{transform: translate(0, 0)}
                }

                .triangle-float2 {
                    animation: float2 4s infinite;
                }

                @keyframes float3 {
                    0%{transform: translate(0, 0)}
                    50%{transform: translate(0, -10px)}
                    100%{transform: translate(0, 0)}
                }

                .triangle-float3 {
                    animation: float3 6s infinite;
                }
            </style></defs></svg>