<svg xmlns="http://www.w3.org/2000/svg" version="1.1" xmlns:xlink="http://www.w3.org/1999/xlink" xmlns:svgjs="http://svgjs.dev/svgjs" width="660" height="1440" preserveAspectRatio="none" viewBox="0 0 660 1440"><g mask="url(&quot;#SvgjsMask1165&quot;)" fill="none"><rect width="660" height="1440" x="0" y="0" fill="url(&quot;#SvgjsLinearGradient1166&quot;)"></rect><path d="M328 1157L327 637" stroke-width="10" stroke="url(&quot;#SvgjsLinearGradient1167&quot;)" stroke-linecap="round" class="Up"></path><path d="M482 1019L481 580" stroke-width="10" stroke="url(&quot;#SvgjsLinearGradient1167&quot;)" stroke-linecap="round" class="Up"></path><path d="M260 693L259 -338" stroke-width="6" stroke="url(&quot;#SvgjsLinearGradient1168&quot;)" stroke-linecap="round" class="Down"></path><path d="M400 1127L399 2045" stroke-width="8" stroke="url(&quot;#SvgjsLinearGradient1167&quot;)" stroke-linecap="round" class="Up"></path><path d="M457 1010L456 2020" stroke-width="8" stroke="url(&quot;#SvgjsLinearGradient1168&quot;)" stroke-linecap="round" class="Down"></path><path d="M547 1273L546 1669" stroke-width="10" stroke="url(&quot;#SvgjsLinearGradient1167&quot;)" stroke-linecap="round" class="Up"></path><path d="M201 741L200 1184" stroke-width="8" stroke="url(&quot;#SvgjsLinearGradient1168&quot;)" stroke-linecap="round" class="Down"></path><path d="M406 91L405 -406" stroke-width="8" stroke="url(&quot;#SvgjsLinearGradient1168&quot;)" stroke-linecap="round" class="Down"></path><path d="M167 837L166 303" stroke-width="8" stroke="url(&quot;#SvgjsLinearGradient1168&quot;)" stroke-linecap="round" class="Down"></path><path d="M222 699L221 114" stroke-width="6" stroke="url(&quot;#SvgjsLinearGradient1168&quot;)" stroke-linecap="round" class="Down"></path><path d="M513 424L512 -378" stroke-width="6" stroke="url(&quot;#SvgjsLinearGradient1168&quot;)" stroke-linecap="round" class="Down"></path><path d="M273 1260L272 308" stroke-width="8" stroke="url(&quot;#SvgjsLinearGradient1168&quot;)" stroke-linecap="round" class="Down"></path><path d="M487 988L486 1384" stroke-width="10" stroke="url(&quot;#SvgjsLinearGradient1168&quot;)" stroke-linecap="round" class="Down"></path><path d="M70 1055L69 555" stroke-width="10" stroke="url(&quot;#SvgjsLinearGradient1167&quot;)" stroke-linecap="round" class="Up"></path><path d="M315 468L314 -49" stroke-width="10" stroke="url(&quot;#SvgjsLinearGradient1167&quot;)" stroke-linecap="round" class="Up"></path><path d="M608 528L607 1435" stroke-width="8" stroke="url(&quot;#SvgjsLinearGradient1168&quot;)" stroke-linecap="round" class="Down"></path><path d="M7 946L6 1729" stroke-width="6" stroke="url(&quot;#SvgjsLinearGradient1168&quot;)" stroke-linecap="round" class="Down"></path></g><defs><mask id="SvgjsMask1165"><rect width="660" height="1440" fill="#ffffff"></rect></mask><linearGradient x1="50%" y1="100%" x2="50%" y2="0%" gradientUnits="userSpaceOnUse" id="SvgjsLinearGradient1166"><stop stop-color="#0e2a47" offset="0"></stop><stop stop-color="rgba(184, 184, 184, 1)" offset="1"></stop></linearGradient><linearGradient x1="0%" y1="100%" x2="0%" y2="0%" id="SvgjsLinearGradient1167"><stop stop-color="rgba(68, 83, 100, 0)" offset="0"></stop><stop stop-color="rgba(68, 83, 100, 1)" offset="1"></stop></linearGradient><linearGradient x1="0%" y1="0%" x2="0%" y2="100%" id="SvgjsLinearGradient1168"><stop stop-color="rgba(68, 83, 100, 0)" offset="0"></stop><stop stop-color="rgba(68, 83, 100, 1)" offset="1"></stop></linearGradient></defs></svg>